HIERARCHY
ROOT Hips
{
	OFFSET	0.00	0.00	0.00
	CHANNELS 6 Xposition Yposition Zposition Zrotation Xrotation Yrotation
	JOINT LeftUpLeg
	{
		OFFSET	 0.126116	-0.014019	-0.065224
		CHANNELS 3 Zrotation Xrotation Yrotation
		JOINT LeftLeg
		{
			OFFSET	 0.000000	 0.000000	 0.569914
			CHANNELS 3 Zrotation Xrotation Yrotation
			JOINT LeftFoot
			{
				OFFSET	 0.000000	 0.000000	 0.544423
				CHANNELS 3 Zrotation Xrotation Yrotation
				JOINT LeftToeBase
				{
					OFFSET	 0.000000	 0.000000	 0.207117
					CHANNELS 3 Zrotation Xrotation Yrotation
					End Site
					{
						OFFSET	 0.000000	 0.000000	 0.207117
					}
				}
			}
		}
	}
	JOINT RightUpLeg
	{
		OFFSET	-0.124023	-0.008373	-0.065224
		CHANNELS 3 Zrotation Xrotation Yrotation
		JOINT RightLeg
		{
			OFFSET	 0.000000	 0.000000	 0.570047
			CHANNELS 3 Zrotation Xrotation Yrotation
			JOINT RightFoot
			{
				OFFSET	 0.000000	 0.000000	 0.544354
				CHANNELS 3 Zrotation Xrotation Yrotation
				JOINT RightToeBase
				{
					OFFSET	 0.000000	 0.000000	 0.207540
					CHANNELS 3 Zrotation Xrotation Yrotation
					End Site
					{
						OFFSET	 0.000000	 0.000000	 0.207540
					}
				}
			}
		}
	}
	JOINT Spine
	{
		OFFSET	 0.000184	-0.007763	 0.117403
		CHANNELS 3 Zrotation Xrotation Yrotation
		JOINT Spine1
		{
			OFFSET	 0.000000	 0.000000	 0.137269
			CHANNELS 3 Zrotation Xrotation Yrotation
			JOINT Spine2
			{
				OFFSET	 0.000000	 0.000000	 0.156879
				CHANNELS 3 Zrotation Xrotation Yrotation
				JOINT LeftShoulder
				{
					OFFSET	 0.080501	-0.002496	 0.160144
					CHANNELS 3 Zrotation Xrotation Yrotation
					JOINT LeftArm
					{
						OFFSET	 0.000000	 0.000000	 0.164363
						CHANNELS 3 Zrotation Xrotation Yrotation
						JOINT LeftForeArm
						{
							OFFSET	 0.000000	 0.000000	 0.364576
							CHANNELS 3 Zrotation Xrotation Yrotation
							JOINT LeftHand
							{
								OFFSET	 0.000000	 0.000000	 0.360812
								CHANNELS 3 Zrotation Xrotation Yrotation
								JOINT LeftHandIndex1
								{
									OFFSET	 0.000000	 0.000000	 0.086006
									CHANNELS 3 Zrotation Xrotation Yrotation
									JOINT LeftHandIndex2
									{
										OFFSET	 0.000000	 0.000000	 0.047236
										CHANNELS 3 Zrotation Xrotation Yrotation
										JOINT LeftHandIndex3
										{
											OFFSET	-0.004284	-0.000551	 0.038166
											CHANNELS 3 Zrotation Xrotation Yrotation
											End Site
											{
												OFFSET	-0.004284	-0.000551	 0.038166
											}
										}
									}
								}
							}
						}
					}
				}
				JOINT Neck
				{
					OFFSET	 0.000000	 0.000000	 0.176489
					CHANNELS 3 Zrotation Xrotation Yrotation
					JOINT Head
					{
						OFFSET	 0.000000	-0.001747	 0.077940
						CHANNELS 3 Zrotation Xrotation Yrotation
						End Site
						{
							OFFSET	 0.000000	-0.001747	 0.077940
						}
					}
				}
				JOINT RightShoulder
				{
					OFFSET	-0.080363	 0.000306	 0.159706
					CHANNELS 3 Zrotation Xrotation Yrotation
					JOINT RightArm
					{
						OFFSET	 0.000000	 0.000000	 0.164196
						CHANNELS 3 Zrotation Xrotation Yrotation
						JOINT RightForeArm
						{
							OFFSET	 0.000000	 0.000000	 0.365611
							CHANNELS 3 Zrotation Xrotation Yrotation
							JOINT RightHand
							{
								OFFSET	 0.000000	 0.000000	 0.360648
								CHANNELS 3 Zrotation Xrotation Yrotation
								JOINT RightHandIndex1
								{
									OFFSET	 0.000000	 0.000000	 0.069977
									CHANNELS 3 Zrotation Xrotation Yrotation
									JOINT RightHandIndex2
									{
										OFFSET	 0.000000	 0.000000	 0.052305
										CHANNELS 3 Zrotation Xrotation Yrotation
										JOINT RightHandIndex3
										{
											OFFSET	 0.009002	-0.000782	 0.042196
											CHANNELS 3 Zrotation Xrotation Yrotation
											End Site
											{
												OFFSET	 0.009002	-0.000782	 0.042196
											}
										}
									}
								}
							}
						}
					}
				}
			}
		}
	}
}
MOTION
Frames:    11
Frame Time: 0.03333334
 0.000428	 0.044247	 1.274223	-0.062906	 2.964697	 0.748649	 1.361811	-7.140077	 178.157300	 2.201567	-14.932070	 0.675055	 0.072801	 71.978220	-0.155575	-2.385833	 28.452750	 0.000004	 6.058103	-6.281891	-178.848100	-0.757789	-12.598360	 0.958978	 5.699398	 70.582660	 0.579345	 2.384659	 28.388700	-0.000001	 2.632072	 7.677772	-0.392437	 1.501979	-7.857746	 0.335006	-3.842064	 11.612320	 0.912559	-91.047040	 68.966090	-177.551900	-6.012145	-0.090160	-10.280200	 25.239370	-4.395540	-16.253270	-6.972706	-8.305957	-4.253670	-2.027600	 6.559038	 9.033609	-5.188889	 0.308190	 3.541030	-5.234859	 0.342567	 0.430617	 4.630140	 19.933570	-7.370665	-8.986414	-14.862520	 1.647699	 88.847560	 67.553440	 177.036100	 10.493300	 6.777434	 11.550950	-27.637370	-5.799168	 15.526460	 3.918384	-7.996440	 5.696467	 1.803333	 3.979147	-15.098590	 4.898592	 3.004813	-9.310344	 5.224449	 0.395017	 2.014677
 0.000121	 0.046460	 1.273423	-0.011909	 3.619373	 0.810188	 1.166270	-8.343236	 178.078400	 2.193650	-15.724720	 0.707858	 0.200416	 72.268760	-0.274379	-2.385833	 28.452750	 0.000004	 6.073607	-7.411848	-178.869300	-0.739963	-13.264600	 1.012915	 5.776846	 70.781480	 0.493515	 2.384659	 28.388700	-0.000001	 2.650393	 8.119056	-0.405975	 1.528775	-9.819005	 0.315866	-3.907212	 13.772900	 1.087305	-90.949450	 68.292280	-177.354300	-5.410785	-0.784823	-10.634200	 24.749070	-4.597623	-17.530170	-5.880476	-9.292385	-4.610879	-2.027600	 6.559038	 9.033609	-5.188889	 0.308190	 3.541030	-5.234859	 0.342567	 0.430617	 4.707845	 21.912500	-7.958929	-8.815080	-16.226990	 1.556401	 88.675560	 66.351330	 176.738400	 10.384860	 6.088061	 12.355270	-27.523940	-6.049084	 16.253940	 2.623238	-8.451282	 5.380653	 1.803333	 3.979147	-15.098590	 4.898592	 3.004813	-9.310344	 5.224449	 0.395017	 2.014677
-0.000457	 0.050940	 1.271871	 0.087319	 4.814315	 0.924339	 0.828176	-10.510980	 177.918700	 2.240705	-17.056650	 0.773775	 0.368708	 72.744470	-0.463409	-2.385833	 28.452760	 0.000004	 6.066917	-9.449418	-178.903500	-0.780451	-14.379500	 1.086198	 5.985465	 71.071290	 0.339546	 2.384659	 28.388700	-0.000001	 2.705640	 8.725382	-0.440506	 1.566264	-12.856410	 0.304140	-4.063385	 17.075420	 1.361817	-90.824310	 67.202460	-177.158300	-4.495118	-1.423526	-10.973680	 23.713150	-4.883117	-19.942870	-4.438715	-10.910710	-5.377431	-2.027600	 6.559038	 9.033609	-5.188889	 0.308190	 3.541030	-5.234859	 0.342567	 0.430617	 4.706770	 24.790960	-8.733965	-8.474352	-18.260290	 1.400147	 88.424130	 64.346850	 176.387000	 10.021260	 5.358385	 13.475770	-27.152250	-6.437328	 17.567450	 0.575469	-9.167210	 5.029113	 1.803333	 3.979147	-15.098590	 4.898592	 3.004813	-9.310344	 5.224449	 0.395017	 2.014677
-0.001163	 0.057603	 1.270324	 0.221567	 6.472148	 1.095397	 0.334206	-13.238480	 177.652800	 2.211542	-18.276520	 0.824698	 0.555169	 73.074070	-0.637114	-2.385832	 28.452790	-0.000001	 5.900518	-11.954500	-178.940600	-1.259157	-15.206110	 1.029341	 6.515153	 71.156570	 0.255018	 2.384659	 28.388700	-0.000001	 2.791155	 9.092819	-0.532588	 1.591702	-16.153210	 0.395984	-4.338694	 20.289980	 1.585467	-90.841120	 65.594060	-177.443300	-3.194767	-1.812501	-10.676110	 21.459450	-4.670295	-22.824770	-4.061934	-12.483620	-6.703370	-2.027600	 6.559038	 9.033609	-5.188889	 0.308190	 3.541030	-5.234859	 0.342567	 0.430617	 4.279520	 26.492660	-8.832637	-8.138504	-19.492160	 1.081706	 88.384350	 61.955420	 176.630900	 8.576783	 4.652550	 14.040120	-26.051720	-6.582379	 19.013480	-1.489937	-9.707431	 5.247002	 1.803333	 3.979147	-15.098590	 4.898592	 3.004813	-9.310344	 5.224449	 0.395017	 2.014677
-0.001400	 0.065699	 1.267789	 0.507145	 8.358171	 1.169753	-0.315984	-16.460720	 177.454500	 2.128995	-19.830450	 0.864044	 0.852795	 73.232410	-0.850511	-2.385833	 28.452760	 0.000004	 5.735240	-15.073730	-178.851700	-1.397109	-16.701710	 1.078884	 7.090427	 71.483830	-0.157041	 2.384659	 28.388700	-0.000001	 2.736995	 8.803702	-0.620704	 1.635908	-19.270790	 0.608196	-4.567465	 22.683650	 1.802949	-91.403290	 64.967260	-179.010700	-1.916284	-0.456671	-8.231714	 20.137710	-4.714361	-25.850700	-3.891307	-13.258700	-7.910265	-2.027600	 6.559038	 9.033609	-5.188889	 0.308190	 3.541030	-5.234859	 0.342567	 0.430617	 3.807928	 26.886370	-8.759686	-7.793522	-19.934880	 0.903519	 88.903400	 61.124010	 177.943700	 6.344420	 5.762139	 12.396090	-25.313320	-6.852108	 20.540950	-3.197250	-10.177120	 5.412253	 1.803333	 3.979147	-15.098590	 4.898592	 3.004813	-9.310344	 5.224449	 0.395017	 2.014677
-0.001651	 0.075250	 1.264701	 0.741075	 10.390090	 1.180797	-0.910829	-19.982910	 177.275100	 2.119868	-21.523300	 0.931087	 1.099472	 73.470210	-1.054397	-2.385833	 28.452760	 0.000004	 5.693323	-18.539130	-178.669200	-1.556571	-18.417990	 1.135499	 7.803309	 71.899890	-0.693618	 2.384659	 28.388700	-0.000001	 2.643745	 8.268965	-0.631658	 1.688554	-21.620670	 0.723112	-4.696623	 24.459070	 2.145423	-92.100450	 64.918690	 179.141600	-0.950637	 1.965470	-5.587949	 19.625510	-5.062586	-28.809890	-3.444260	-13.814670	-8.642744	-2.027600	 6.559038	 9.033609	-5.188889	 0.308190	 3.541030	-5.234859	 0.342567	 0.430617	 3.380962	 26.183890	-8.867854	-7.406161	-19.723940	 0.725897	 89.573420	 60.568990	 179.520700	 3.973683	 7.609995	 10.590740	-24.343320	-6.971168	 22.036010	-4.303636	-10.750550	 5.565148	 1.803333	 3.979147	-15.098590	 4.898592	 3.004813	-9.310344	 5.224449	 0.395017	 2.014677
-0.002474	 0.089947	 1.260972	 1.310587	 13.518660	 1.183282	-2.049437	-25.148130	 176.852400	 2.434696	-23.523410	 1.138785	 0.825886	 73.491330	-1.008313	-2.385832	 28.452790	-0.000001	 5.380670	-23.435030	-178.424600	-1.526676	-20.119420	 1.246528	 8.037369	 71.851860	-0.919405	 2.384659	 28.388700	-0.000001	 2.424888	 7.280066	-0.592742	 1.531023	-23.514740	 0.730890	-4.764853	 25.569430	 2.385103	-92.959780	 65.197070	 176.826300	 0.275177	 5.632588	-2.349222	 19.442920	-5.843816	-32.934040	-2.629387	-14.130640	-9.097549	-2.027600	 6.559038	 9.033609	-5.188889	 0.308190	 3.541030	-5.234859	 0.342567	 0.430617	 2.941409	 24.897140	-8.868770	-6.949807	-19.254800	 0.460169	 90.480550	 60.346130	-178.407500	 0.932181	 10.383740	 8.436892	-22.973450	-7.122211	 24.348510	-5.126786	-11.328920	 5.825826	 1.803333	 3.979147	-15.098590	 4.898592	 3.004813	-9.310344	 5.224449	 0.395017	 2.014677
-0.004114	 0.106700	 1.258282	 2.380927	 17.206630	 1.175812	-3.876820	-30.558780	 176.018200	 3.131757	-24.476120	 1.471666	-0.096815	 72.564620	-0.661725	-2.385833	 28.452750	 0.000004	 4.499160	-28.584230	-178.323300	-1.171258	-20.924320	 1.421608	 7.407421	 70.861610	-0.585069	 2.384659	 28.388700	-0.000001	 2.058934	 6.099442	-0.561373	 0.987088	-24.484510	 0.633271	-4.791742	 25.533380	 2.172595	-93.648280	 65.359470	 174.942100	 2.093962	 9.501460	-0.647904	 19.247700	-6.412260	-36.004360	-1.873258	-14.028810	-9.386065	-2.027600	 6.559038	 9.033609	-5.188889	 0.308190	 3.541030	-5.234859	 0.342567	 0.430617	 2.619366	 24.307150	-8.367693	-6.604591	-19.253470	 0.143633	 91.281390	 60.648930	-176.548200	-2.228889	 13.489800	 7.724909	-21.963640	-7.045710	 25.678020	-5.722865	-11.503810	 6.215371	 1.803333	 3.979147	-15.098590	 4.898592	 3.004813	-9.310344	 5.224449	 0.395017	 2.014677
-0.006278	 0.124809	 1.254736	 3.655858	 20.719470	 0.912667	-6.096065	-35.664120	 175.018500	 3.778129	-25.134930	 1.784306	-1.467492	 71.235760	 0.179837	-2.385833	 28.452760	 0.000004	 3.475361	-33.859350	-178.166800	-1.665684	-22.375430	 1.326368	 7.634546	 69.802250	-0.378860	 2.384659	 28.388700	-0.000001	 1.654257	 5.778831	-0.495076	 0.280779	-24.653780	 0.653231	-4.726172	 25.155380	 1.663922	-94.168950	 65.909840	 173.356600	 4.110635	 13.910850	-1.393481	 19.245750	-6.792583	-37.586980	-1.346783	-14.219210	-9.657893	-2.027600	 6.559038	 9.033609	-5.188889	 0.308190	 3.541030	-5.234859	 0.342567	 0.430617	 2.308914	 23.866100	-7.230608	-6.400367	-19.438520	-0.549787	 91.997020	 61.342750	-174.779800	-5.173007	 17.187900	 8.988359	-21.585130	-7.030492	 26.259230	-6.158224	-11.505720	 6.558756	 1.803333	 3.979147	-15.098590	 4.898592	 3.004813	-9.310344	 5.224449	 0.395017	 2.014677
-0.008763	 0.139599	 1.248853	 4.259662	 22.514310	 0.678101	-7.304963	-39.137490	 174.317700	 3.991710	-26.969640	 2.002365	-1.927446	 71.795520	 0.565422	-2.385833	 28.452750	 0.000004	 3.209474	-37.572850	-177.975400	-1.748848	-24.984090	 1.436344	 8.548457	 71.073100	-1.206509	 2.384659	 28.388700	-0.000001	 1.515676	 7.620697	-0.460163	-0.106496	-23.606690	 0.692580	-4.390264	 25.054070	 1.260455	-94.475430	 67.237190	 171.935100	 5.964281	 17.511400	-4.795103	 19.471790	-7.091755	-38.056820	-0.864148	-14.682140	-9.809964	-2.027600	 6.559038	 9.033609	-5.188889	 0.308190	 3.541030	-5.234859	 0.342567	 0.430617	 1.853036	 23.182210	-6.447522	-6.039851	-19.608510	-1.035520	 92.518600	 62.073010	-173.379600	-7.391394	 20.546540	 12.451090	-21.120300	-7.024080	 27.048090	-5.696882	-11.969600	 7.150575	 1.803333	 3.979147	-15.098590	 4.898592	 3.004813	-9.310344	 5.224449	 0.395017	 2.014677
-0.011068	 0.153486	 1.242605	 4.159797	 23.848890	 0.478783	-7.609823	-42.053420	 173.958800	 4.070429	-29.181550	 2.191170	-2.188849	 72.601360	 0.889328	-2.385833	 28.452750	 0.000004	 3.841555	-40.869710	-177.433200	-1.934405	-28.148430	 1.516457	 10.193930	 72.292230	-2.731716	 2.384659	 28.388700	-0.000001	 1.518526	 10.343110	-0.430639	-0.110422	-21.106620	 0.901012	-3.829740	 24.480270	 0.950550	-94.557750	 69.059450	 170.612300	 7.358838	 19.662620	-9.100058	 19.402970	-7.379106	-39.380610	-0.792864	-15.634150	-9.923882	-2.027600	 6.559038	 9.033609	-5.188889	 0.308190	 3.541030	-5.234859	 0.342567	 0.430617	 1.372570	 22.233550	-6.035906	-5.551289	-19.657840	-1.274823	 92.903090	 63.229550	-172.100800	-9.266243	 23.453890	 17.366380	-20.411440	-7.117308	 28.684200	-4.575455	-12.901200	 7.904616	 1.803333	 3.979147	-15.098590	 4.898592	 3.004813	-9.310344	 5.224449	 0.395017	 2.014677
